:SAMPLES-PER-SECOND 30
:FULLY-SPECIFIED
:DEGREES
105
root  -3.56651 40.4952 -0.34362 173.719 -62.3702 -173.78
RightUpLeg  -1.39995 4.86949 3.11096
RightLeg  7.16961 0.178988 -1.25303
RightFoot  -4.63456 -0.196074 2.80654
RightToes  -3.11842e-008 1.75238e-005 3.56266e-009
Spine  2.42893 -13.7527 -23.8067
Spine1  3.75598 -17.7812 17.8627
HEad  -12.679 53.6908 -20.1385
LeftShoulder1  4.23685 -11.9403 -21.0488
LeftArm  78.3923 -61.912 -125.569
LeftForeArm  89.3365 -73.0096 -25.5787
LeftHand  -3.43463 -6.24191 33.6675
RightShoulder  3.03834 7.04507 22.5912
RightArm  -66.884 35.0942 10.4372
RightForeArm  151.412 50.0666 166.621
RightHand  -3.05201 13.2628 -19.1831
LeftUpLeg  4.28855 6.69748 6.48475
LeftLeg  9.64061 33.1925 3.59693
LeftFoot  -6.9504 0.273243 -6.03245
LeftToes  4.7713e-008 1.46693e-008 1.32589e-009
106
root  -3.32668 40.5527 -0.240069 174.14 -65.7896 -173.583
RightUpLeg  -1.9216 3.71727 2.5779
RightLeg  6.41724 -2.03303 -1.20659
RightFoot  -4.10436 -0.212278 2.91338
RightToes  -3.11842e-008 1.75238e-005 3.56266e-009
Spine  3.20263 -12.6443 -23.3534
Spine1  4.33924 -16.609 16.4312
HEad  -11.8702 49.8576 -18.2198
LeftShoulder1  4.04969 -12.206 -19.2686
LeftArm  78.0432 -61.075 -126.689
LeftForeArm  87.9974 -71.4687 -23.0152
LeftHand  -3.4187 -6.91288 31.7869
RightShoulder  3.25338 6.97273 24.9676
RightArm  -67.5475 35.3949 11.8219
RightForeArm  149.394 49.7536 166.619
RightHand  -3.01887 13.2721 -18.9678
LeftUpLeg  2.55075 6.16535 6.23199
LeftLeg  9.33802 30.4618 3.14743
LeftFoot  -6.49306 0.277891 -5.65358
LeftToes  4.7713e-008 1.46693e-008 1.32589e-009
107
root  -2.99509 40.6176 -0.150345 174.284 -70.5562 -173.195
RightUpLeg  -2.29298 2.55443 1.96734
RightLeg  5.57647 -5.55735 -1.11831
RightFoot  -3.4927 -0.228027 2.97521
RightToes  -3.11842e-008 1.75238e-005 3.56266e-009
Spine  5.45126 -11.0785 -23.6082
Spine1  3.5931 -15.5014 17.326
HEad  -11.1387 44.9125 -16.9407
LeftShoulder1  4.06497 -12.2735 -19.2573
LeftArm  77.1768 -60.7143 -126.433
LeftForeArm  85.3164 -69.2134 -20.0769
LeftHand  -3.44208 -6.73757 32.4382
RightShoulder  3.38601 7.19473 25.5925
RightArm  -65.7605 36.237 15.6263
RightForeArm  146.455 50.3029 166.179
RightHand  -3.22169 13.3955 -20.1094
LeftUpLeg  0.615381 5.42888 5.89033
LeftLeg  8.75799 26.691 2.50222
LeftFoot  -5.63571 0.263789 -4.61538
LeftToes  4.7713e-008 1.46693e-008 1.32589e-009
108
root  -2.62567 40.6805 -0.0880256 174.353 -76.5284 -172.696
RightUpLeg  -2.66938 1.25455 1.13972
RightLeg  4.81946 -10.1484 -0.795727
RightFoot  -2.84685 -0.232451 2.86874
RightToes  -3.11842e-008 1.75238e-005 3.56266e-009
Spine  6.75453 -9.66986 -23.053
Spine1  4.67942 -14.5691 17.5953
HEad  -11.3032 38.5939 -15.4637
LeftShoulder1  3.98803 -11.8533 -19.4753
LeftArm  76.9256 -60.5804 -126.576
LeftForeArm  82.3777 -66.358 -17.1971
LeftHand  -3.009 -6.03937 30.1436
RightShoulder  3.66564 7.91632 26.052
RightArm  -64.4047 38.2711 20.0685
RightForeArm  141.355 52.0508 165.019
RightHand  -3.70593 13.8984 -22.1328
LeftUpLeg  -1.55288 4.39686 5.3145
LeftLeg  8.0274 22.065 1.87192
LeftFoot  -4.47246 0.248984 -3.70571
LeftToes  4.7713e-008 1.46693e-008 1.32589e-009
109
root  -2.25823 40.7381 -0.0922795 168.591 -83.2256 -166.087
RightUpLeg  -3.18381 -0.200905 0.21426
RightLeg  4.03404 -15.3689 -0.103036
RightFoot  -2.29267 -0.206704 2.41689
RightToes  -3.11842e-008 1.75238e-005 3.56266e-009
Spine  7.40989 -8.08715 -20.7876
Spine1  5.95984 -12.9607 16.409
HEad  -11.3218 30.1617 -12.9344
LeftShoulder1  3.93774 -11.7201 -19.3498
LeftArm  75.8899 -59.9178 -125.979
LeftForeArm  77.5581 -62.246 -14.1963
LeftHand  -2.20511 -4.13818 26.7211
RightShoulder  4.05767 8.60111 27.5139
RightArm  -63.5428 39.761 23.9374
RightForeArm  137.497 54.9946 163.189
RightHand  -4.92333 16.1924 -26.2677
LeftUpLeg  -3.89284 3.36287 4.74444
LeftLeg  6.94216 16.6676 0.988695
LeftFoot  -2.9474 0.230406 -2.8955
LeftToes  4.7713e-008 1.46693e-008 1.32589e-009
110
root  -1.9371 40.7794 -0.163866 -20.0233 -89.7785 23.3803
RightUpLeg  -3.40667 -1.5004 -0.614872
RightLeg  3.049 -20.9318 0.582458
RightFoot  -1.79582 -0.184181 2.05612
RightToes  -3.11842e-008 1.75238e-005 3.56266e-009
Spine  5.44073 -6.15092 -18.2038
Spine1  9.86836 -11.1407 16.0554
HEad  -11.6851 20.1783 -11.2595
LeftShoulder1  4.4531 -12.7238 -21.0602
LeftArm  75.4274 -59.6556 -124.717
LeftForeArm  71.1573 -55.4694 -10.7399
LeftHand  -1.72465 -2.90203 24.1176
RightShoulder  4.49634 9.85289 27.6867
RightArm  -64.0246 40.8664 27.5188
RightForeArm  128.543 59.7652 159.337
RightHand  -3.03746 11.7808 -20.7296
LeftUpLeg  -5.99353 2.1054 4.03834
LeftLeg  5.61414 11.1412 0.277889
LeftFoot  -1.11326 0.217441 -2.35974
LeftToes  4.7713e-008 1.46693e-008 1.32589e-009
111
root  -1.63926 40.7815 -0.296439 7.00155 -82.6322 -3.14452
RightUpLeg  -3.60621 -2.88341 -1.32634
RightLeg  3.07197 -26.2062 1.08053
RightFoot  -1.77815 -0.17885 1.97946
RightToes  -3.11842e-008 1.75238e-005 3.56266e-009
Spine  -2.05142 -3.69612 -18.0148
Spine1  22.3876 -10.7484 19.7627
HEad  -14.8017 8.44213 -11.5381
LeftShoulder1  4.7877 -13.3023 -22.1464
LeftArm  79.5422 -60.4204 -130.988
LeftForeArm  67.4817 -45.5379 -7.07799
LeftHand  -1.54172 -2.65635 22.297
RightShoulder  4.18264 10.1014 24.6222
RightArm  -66.6213 46.0021 32.061
RightForeArm  114.765 66.4152 151.517
RightHand  -2.46306 9.67797 -19.1946
LeftUpLeg  -7.81501 0.799476 3.31896
LeftLeg  4.80347 5.69486 -0.0380515
LeftFoot  0.602282 0.198528 -1.92711
LeftToes  4.7713e-008 1.46693e-008 1.32589e-009
112
root  -1.39348 40.7606 -0.477934 2.66806 -76.4168 1.44447
RightUpLeg  -3.61471 -3.8622 -1.6673
RightLeg  3.20608 -31.1954 1.31329
RightFoot  -1.8914 -0.169846 1.85612
RightToes  -3.11842e-008 1.75238e-005 3.56266e-009
Spine  -2.3612 -1.30769 -14.3518
Spine1  23.6741 -8.9634 20.6646
HEad  -14.1739 -1.875 -9.1543
LeftShoulder1  5.04713 -13.6745 -23.0648
LeftArm  72.6688 -58.8848 -129.113
LeftForeArm  70.2229 -34.7061 -4.05339
LeftHand  -1.48491 -2.95002 20.7223
RightShoulder  4.21119 10.2876 24.0701
RightArm  -64.4222 47.4174 37.6458
RightForeArm  91.2388 73.958 132.57
RightHand  -2.43094 8.59687 -20.2791
LeftUpLeg  -9.13434 -0.398597 2.73679
LeftLeg  4.04544 1.02183 -0.0897602
LeftFoot  1.99722 0.23443 -2.10363
LeftToes  4.7713e-008 1.46693e-008 1.32589e-009
113
root  -1.17821 40.7482 -0.685141 2.09646 -71.8526 2.11143
RightUpLeg  -3.79212 -4.33601 -1.79285
RightLeg  3.75575 -34.9646 0.937332
RightFoot  -1.95456 -0.174403 1.94647
RightToes  -3.11842e-008 1.75238e-005 3.56266e-009
Spine  5.23439 -0.951892 -3.74333
Spine1  14.1553 -4.22667 10.2955
HEad  -10.9024 -6.34007 -4.68942
LeftShoulder1  4.27194 -11.9514 -21.2879
LeftArm  51.367 -56.0786 -116.049
LeftForeArm  75.4171 -25.789 -2.24559
LeftHand  -1.16173 -1.30588 20.1865
RightShoulder  6.16596 12.6301 32.4134
RightArm  -55.2575 44.8755 40.7664
RightForeArm  33.7339 77.7611 81.7371
RightHand  -2.00784 7.12672 -18.7858
LeftUpLeg  -9.75433 -1.10752 2.34441
LeftLeg  2.91814 -2.50994 -0.249915
LeftFoot  3.37185 0.287805 -2.39404
LeftToes  4.7713e-008 1.46693e-008 1.32589e-009
114
root  -1.01806 40.7384 -0.912449 1.49541 -68.816 2.60326
RightUpLeg  -3.99688 -4.59753 -1.81763
RightLeg  4.69822 -37.3583 0.23629
RightFoot  -2.0136 -0.175276 1.99022
RightToes  -3.11842e-008 1.75238e-005 3.56266e-009
Spine  5.00069 0.934175 0.308219
Spine1  16.5159 -2.05298 9.34038
HEad  -12.3472 -12.2742 -4.10752
LeftShoulder1  4.36487 -11.6982 -22.4108
LeftArm  31.9836 -55.3502 -107.531
LeftForeArm  81.1764 -21.2181 -2.26118
LeftHand  -1.0205 -0.519775 20.0757
RightShoulder  6.15037 12.8922 31.5683
RightArm  -46.4475 45.8921 43.968
RightForeArm  -21.4215 70.5541 38.1533
RightHand  -1.80713 5.98257 -18.6161
LeftUpLeg  -9.76482 -1.29305 2.19205
LeftLeg  1.64613 -5.11118 -0.526974
LeftFoot  4.64918 0.297723 -2.31865
LeftToes  4.7713e-008 1.46693e-008 1.32589e-009
